ffmpeg version 6.1.1-3ubuntu5 Copyright (c) 2000-2023 the FFmpeg developers
  built with gcc 13 (Ubuntu 13.2.0-23ubuntu3)
  configuration: --prefix=/usr --extra-version=3ubuntu5 --toolchain=hardened --libdir=/usr/lib/x86_64-linux-gnu --incdir=/usr/include/x86_64-linux-gnu --arch=amd64 --enable-gpl --disable-stripping --disable-omx --enable-gnutls --enable-libaom --enable-libass --enable-libbs2b --enable-libcaca --enable-libcdio --enable-libcodec2 --enable-libdav1d --enable-libflite --enable-libfontconfig --enable-libfreetype --enable-libfribidi --enable-libglslang --enable-libgme --enable-libgsm --enable-libharfbuzz --enable-libmp3lame --enable-libmysofa --enable-libopenjpeg --enable-libopenmpt --enable-libopus --enable-librubberband --enable-libshine --enable-libsnappy --enable-libsoxr --enable-libspeex --enable-libtheora --enable-libtwolame --enable-libvidstab --enable-libvorbis --enable-libvpx --enable-libwebp --enable-libx265 --enable-libxml2 --enable-libxvid --enable-libzimg --enable-openal --enable-opencl --enable-opengl --disable-sndio --enable-libvpl --disable-libmfx --enable-libdc1394 --enable-libdrm --enable-libiec61883 --enable-chromaprint --enable-frei0r --enable-ladspa --enable-libbluray --enable-libjack --enable-libpulse --enable-librabbitmq --enable-librist --enable-libsrt --enable-libssh --enable-libsvtav1 --enable-libx264 --enable-libzmq --enable-libzvbi --enable-lv2 --enable-sdl2 --enable-libplacebo --enable-librav1e --enable-pocketsphinx --enable-librsvg --enable-libjxl --enable-shared
  libavutil      58. 29.100 / 58. 29.100
  libavcodec     60. 31.102 / 60. 31.102
  libavformat    60. 16.100 / 60. 16.100
  libavdevice    60.  3.100 / 60.  3.100
  libavfilter     9. 12.100 /  9. 12.100
  libswscale      7.  5.100 /  7.  5.100
  libswresample   4. 12.100 /  4. 12.100
  libpostproc    57.  3.100 / 57.  3.100
Routing option strict to both codec and muxer layer
[Parsed_scale_0 @ 0x581fa4228200] w:1920 h:1080 flags:'' interl:0
[Parsed_scale_2 @ 0x581fa42358c0] w:1920 h:1080 flags:'' interl:0
-vsync is deprecated. Use -fps_mode
Passing a number to -vsync is deprecated, use a string argument as described in the manual.
[h264 @ 0x581fa423e980] Reinit context to 1920x1088, pix_fmt: yuv420p
Input #0, mov,mp4,m4a,3gp,3g2,mj2, from '/var/www/html/project/media/video/original/Sequence_01_2.mp4':
  Metadata:
    major_brand     : mp42
    minor_version   : 0
    compatible_brands: mp42mp41
    creation_time   : 2026-01-07T16:41:13.000000Z
  Duration: 00:00:36.83, start: 0.000000, bitrate: 15599 kb/s
  Stream #0:0[0x1](eng): Video: h264 (Main), 1 reference frame (avc1 / 0x31637661), yuv420p(tv, bt709, progressive, left), 1920x1080 (1920x1088), 15268 kb/s, 24 fps, 24 tbr, 24k tbn (default)
    Metadata:
      creation_time   : 2026-01-07T16:41:13.000000Z
      handler_name    : ?Mainconcept Video Media Handler
      vendor_id       : [0][0][0][0]
      encoder         : AVC Coding
  Stream #0:1[0x2](eng): Audio: aac (LC) (mp4a / 0x6134706D), 48000 Hz, stereo, fltp, 317 kb/s (default)
    Metadata:
      creation_time   : 2026-01-07T16:41:14.000000Z
      handler_name    : #Mainconcept MP4 Sound Media Handler
      vendor_id       : [0][0][0][0]
Input #1, png_pipe, from '/var/www/html/project/static/images/templates/logo.png':
  Duration: N/A, bitrate: N/A
  Stream #1:0: Video: png, 1 reference frame, rgba(pc, gbr/unknown/unknown), 1920x1080 [SAR 2835:2835 DAR 16:9], 25 fps, 25 tbr, 25 tbn
[out#0/mp4 @ 0x581fa517e3c0] Creating output stream from unlabeled output of complex filtergraph 0. This overrides automatic video mapping.
[vost#0:0/libx264 @ 0x581fa517f140] Created video stream from complex filtergraph 0:[overlay:default]
[vost#0:0/libx264 @ 0x581fa517f140] 
[out#0/mp4 @ 0x581fa517e3c0] No explicit maps, mapping streams automatically...
[aost#0:1/aac @ 0x581fa5180b40] Created audio stream from input stream 0:1
Stream mapping:
  Stream #0:0 (h264) -> scale:default (graph 0)
  Stream #1:0 (png) -> scale:default (graph 0)
  overlay:default (graph 0) -> Stream #0:0 (libx264)
  Stream #0:1 -> #0:1 (aac (native) -> aac (native))
Press [q] to stop, [?] for help
[h264 @ 0x581fa42a62c0] Reinit context to 1920x1088, pix_fmt: yuv420p
[graph_1_in_0_1 @ 0x581fa4228200] tb:1/48000 samplefmt:fltp samplerate:48000 chlayout:stereo
[in#1/png_pipe @ 0x581fa42a5580] EOF while reading input
[in#1/png_pipe @ 0x581fa42a5580] Terminating demuxer thread
[vist#1:0/png @ 0x581fa42a0880] Decoder thread received EOF packet
[vist#1:0/png @ 0x581fa42a0880] Decoder returned EOF, finishing
[vist#1:0/png @ 0x581fa42a0880] Terminating decoder thread
[Parsed_scale_0 @ 0x581fa4322a00] w:1920 h:1080 flags:'' interl:0
[Parsed_scale_2 @ 0x581fa4322e80] w:1920 h:1080 flags:'' interl:0
[graph 0 input from stream 0:0 @ 0x581fa431e280] w:1920 h:1080 pixfmt:yuv420p tb:1/24000 fr:24/1 sar:0/1
[graph 0 input from stream 1:0 @ 0x581fa4324300] w:1920 h:1080 pixfmt:rgba tb:1/25 fr:25/1 sar:2835/2835
[Parsed_scale_0 @ 0x581fa4322a00] w:1920 h:1080 fmt:yuv420p sar:0/1 -> w:1920 h:1080 fmt:yuv420p sar:0/1 flags:(null)
[Parsed_setsar_1 @ 0x581fa4322d00] w:1920 h:1080 sar:0/1 dar:16/9 -> sar:1/1 dar:16/9
[Parsed_scale_2 @ 0x581fa4322e80] w:1920 h:1080 fmt:rgba sar:2835/2835 -> w:1920 h:1080 fmt:yuva420p sar:1/1 flags:0x00000004
[Parsed_setsar_3 @ 0x581fa43232c0] w:1920 h:1080 sar:1/1 dar:16/9 -> sar:1/1 dar:16/9
[Parsed_overlay_4 @ 0x581fa43234c0] main w:1920 h:1080 fmt:yuv420p overlay w:1920 h:1080 fmt:yuva420p
[Parsed_overlay_4 @ 0x581fa43234c0] [framesync @ 0x581fa4243968] Selected 1/24000 time base
[Parsed_overlay_4 @ 0x581fa43234c0] [framesync @ 0x581fa4243968] Sync level 2
[Parsed_scale_0 @ 0x581fa4322a00] w:1920 h:1080 fmt:yuv420p sar:0/1 -> w:1920 h:1080 fmt:yuv420p sar:0/1 flags:(null)
    Last message repeated 2 times
[Parsed_scale_2 @ 0x581fa4322e80] w:1920 h:1080 fmt:rgba sar:2835/2835 -> w:1920 h:1080 fmt:yuva420p sar:1/1 flags:0x00000004
    Last message repeated 2 times
[libx264 @ 0x581fa517f500] using SAR=1/1
[libx264 @ 0x581fa517f500] using cpu capabilities: MMX2 SSE2Fast SSSE3 SSE4.2 AVX FMA3 BMI2 AVX2
[libx264 @ 0x581fa517f500] profile High, level 4.0, 4:2:0, 8-bit
[libx264 @ 0x581fa517f500] 264 - core 164 r3108 31e19f9 - H.264/MPEG-4 AVC codec - Copyleft 2003-2023 - http://www.videolan.org/x264.html - options: cabac=1 ref=1 deblock=1:0:0 analyse=0x3:0x113 me=hex subme=2 psy=1 psy_rd=1.00:0.00 mixed_ref=0 me_range=16 chroma_me=1 trellis=0 8x8dct=1 cqm=0 deadzone=21,11 fast_pskip=1 chroma_qp_offset=0 threads=24 lookahead_threads=8 sliced_threads=0 nr=0 decimate=1 interlaced=0 bluray_compat=0 constrained_intra=0 bframes=3 b_pyramid=2 b_adapt=1 b_bias=0 direct=1 weightb=1 open_gop=0 weightp=1 keyint=250 keyint_min=24 scenecut=40 intra_refresh=0 rc_lookahead=10 rc=crf mbtree=1 crf=18.0 qcomp=0.60 qpmin=0 qpmax=69 qpstep=4 ip_ratio=1.40 aq=1:1.00
Output #0, mp4, to '/var/www/html/project/media/video/watermarks/Sequence_01_2.mp4':
  Metadata:
    major_brand     : mp42
    minor_version   : 0
    compatible_brands: mp42mp41
    encoder         : Lavf60.16.100
  Stream #0:0: Video: h264, 1 reference frame (avc1 / 0x31637661), yuv420p(tv, bt709, progressive, left), 1920x1080 (0x0) [SAR 1:1 DAR 16:9], q=2-31, 24 fps, 12288 tbn
    Metadata:
      encoder         : Lavc60.31.102 libx264
    Side data:
      cpb: bitrate max/min/avg: 0/0/0 buffer size: 0 vbv_delay: N/A
  Stream #0:1(eng): Audio: aac (LC) (mp4a / 0x6134706D), 48000 Hz, stereo, fltp, delay 1024, 128 kb/s (default)
    Metadata:
      creation_time   : 2026-01-07T16:41:14.000000Z
      handler_name    : #Mainconcept MP4 Sound Media Handler
      vendor_id       : [0][0][0][0]
      encoder         : Lavc60.31.102 aac
[in#0/mov,mp4,m4a,3gp,3g2,mj2 @ 0x581fa423ddc0] EOF while reading input
[in#0/mov,mp4,m4a,3gp,3g2,mj2 @ 0x581fa423ddc0] Terminating demuxer thread
[vist#0:0/h264 @ 0x581fa449f9c0] Decoder thread received EOF packet
[vist#0:0/h264 @ 0x581fa449f9c0] Decoder returned EOF, finishing
[vist#0:0/h264 @ 0x581fa449f9c0] Terminating decoder thread
[Parsed_overlay_4 @ 0x581fa43234c0] [framesync @ 0x581fa4243968] Sync level 0
[aist#0:1/aac @ 0x581fa42a2b00] Decoder thread received EOF packet
[aist#0:1/aac @ 0x581fa42a2b00] Decoder returned EOF, finishing
[aist#0:1/aac @ 0x581fa42a2b00] Terminating decoder thread
No more output streams to write to, finishing.
[out#0/mp4 @ 0x581fa517e3c0] All streams finished
[out#0/mp4 @ 0x581fa517e3c0] Terminating muxer thread
[AVIOContext @ 0x581fa52e4900] Statistics: 58669883 bytes written, 2 seeks, 227 writeouts
[out#0/mp4 @ 0x581fa517e3c0] Output file #0 (/var/www/html/project/media/video/watermarks/Sequence_01_2.mp4):
[out#0/mp4 @ 0x581fa517e3c0]   Output stream #0:0 (video): 884 frames encoded; 884 packets muxed (58045339 bytes); 
[out#0/mp4 @ 0x581fa517e3c0]   Output stream #0:1 (audio): 1727 frames encoded (1768448 samples); 1728 packets muxed (597476 bytes); 
[out#0/mp4 @ 0x581fa517e3c0]   Total: 2612 packets (58642815 bytes) muxed
[out#0/mp4 @ 0x581fa517e3c0] video:56685kB audio:583kB subtitle:0kB other streams:0kB global headers:0kB muxing overhead: 0.046151%
frame=  884 fps= 34 q=-1.0 Lsize=   57295kB time=00:00:36.82 bitrate=12746.9kbits/s speed=1.42x    
[AVIOContext @ 0x581fa4235700] Statistics: 9946 bytes written, 0 seeks, 49 writeouts
[libx264 @ 0x581fa517f500] frame I:7     Avg QP:15.53  size:324385
[libx264 @ 0x581fa517f500] frame P:222   Avg QP:18.76  size:145502
[libx264 @ 0x581fa517f500] frame B:655   Avg QP:22.57  size: 35836
[libx264 @ 0x581fa517f500] consecutive B-frames:  1.0%  0.2%  1.0% 97.7%
[libx264 @ 0x581fa517f500] mb I  I16..4:  9.1% 10.1% 80.8%
[libx264 @ 0x581fa517f500] mb P  I16..4:  4.7%  4.1%  4.2%  P16..4: 35.7% 21.9% 24.6%  0.0%  0.0%    skip: 4.8%
[libx264 @ 0x581fa517f500] mb B  I16..4:  0.9%  0.4%  0.2%  B16..8: 26.9% 14.9%  4.3%  direct:15.2%  skip:37.2%  L0:34.3% L1:34.9% BI:30.8%
[libx264 @ 0x581fa517f500] 8x8 transform intra:27.4% inter:13.4%
[libx264 @ 0x581fa517f500] coded y,uvDC,uvAC intra: 52.8% 56.6% 20.0% inter: 28.9% 13.2% 0.6%
[libx264 @ 0x581fa517f500] i16 v,h,dc,p: 44% 25% 25%  6%
[libx264 @ 0x581fa517f500] i8 v,h,dc,ddl,ddr,vr,hd,vl,hu: 27% 25% 29%  3%  3%  3%  3%  3%  3%
[libx264 @ 0x581fa517f500] i4 v,h,dc,ddl,ddr,vr,hd,vl,hu: 27% 19% 15%  6%  7%  7%  7%  6%  7%
[libx264 @ 0x581fa517f500] i8c dc,h,v,p: 52% 20% 22%  6%
[libx264 @ 0x581fa517f500] Weighted P-Frames: Y:5.9% UV:0.5%
[libx264 @ 0x581fa517f500] kb/s:12606.98
[aac @ 0x581fa5180f00] Qavg: 551.461
[in#0/mov,mp4,m4a,3gp,3g2,mj2 @ 0x581fa423ddc0] Input file #0 (/var/www/html/project/media/video/original/Sequence_01_2.mp4):
[in#0/mov,mp4,m4a,3gp,3g2,mj2 @ 0x581fa423ddc0]   Input stream #0:0 (video): 884 packets read (70297267 bytes); 884 frames decoded; 0 decode errors; 
[in#0/mov,mp4,m4a,3gp,3g2,mj2 @ 0x581fa423ddc0]   Input stream #0:1 (audio): 1727 packets read (1460937 bytes); 1727 frames decoded; 0 decode errors (1768448 samples); 
[in#0/mov,mp4,m4a,3gp,3g2,mj2 @ 0x581fa423ddc0]   Total: 2611 packets (71758204 bytes) demuxed
[AVIOContext @ 0x581fa423e180] Statistics: 71820548 bytes read, 0 seeks
[in#1/png_pipe @ 0x581fa42a5580] Input file #1 (/var/www/html/project/static/images/templates/logo.png):
[in#1/png_pipe @ 0x581fa42a5580]   Input stream #1:0 (video): 1 packets read (111578 bytes); 1 frames decoded; 0 decode errors; 
[in#1/png_pipe @ 0x581fa42a5580]   Total: 1 packets (111578 bytes) demuxed
[AVIOContext @ 0x581fa4240700] Statistics: 111578 bytes read, 0 seeks
